<svg width="16" height="16" viewBox="0 0 16 16" fill="none" xmlns="http://www.w3.org/2000/svg">
<path d="M0 5C0 2.64298 0 1.46447 0.732233 0.732233C1.46447 0 2.64298 0 5 0H8C10.8003 0 12.2004 0 13.27 0.544967C14.2108 1.02433 14.9757 1.78924 15.455 2.73005C16 3.79961 16 5.19974 16 8C16 10.8003 16 12.2004 15.455 13.27C14.9757 14.2108 14.2108 14.9757 13.27 15.455C12.2004 16 10.8003 16 8 16C5.19974 16 3.79961 16 2.73005 15.455C1.78924 14.9757 1.02433 14.2108 0.544967 13.27C0 12.2004 0 10.8003 0 8V5Z" fill="#1E2329"/>
<path d="M7.94641 13.168C10.1864 13.168 11.4884 11.95 11.4884 10.13C11.4884 8.576 10.6064 7.708 8.66041 7.33L7.79241 7.148C6.74241 6.938 6.23841 6.588 6.23841 5.776C6.23841 4.922 6.88241 4.46 8.00241 4.46C9.08041 4.46 9.78041 4.88 10.2844 5.538L11.3904 4.558C10.6344 3.592 9.55641 3.06 8.08641 3.06C6.01441 3.06 4.67041 4.124 4.67041 5.86C4.67041 7.414 5.63641 8.296 7.52641 8.646L8.39441 8.8C9.52841 9.024 9.92041 9.458 9.92041 10.214C9.92041 11.152 9.27641 11.768 8.03041 11.768C6.96641 11.768 6.15441 11.334 5.46841 10.494L4.37641 11.516C5.18841 12.524 6.30841 13.168 7.94641 13.168Z" fill="url(#paint0_linear)"/>
<defs>
<linearGradient id="paint0_linear" x1="8" y1="3" x2="8" y2="12" gradientUnits="userSpaceOnUse">
<stop stop-color="#05AA82"/>
<stop offset="1" stop-color="#1C8DF0"/>
</linearGradient>
</defs>
</svg>
