<?xml version="1.0" encoding="UTF-8"?>
<svg width="29px" height="20px" viewBox="0 0 29 20" version="1.1" xmlns="http://www.w3.org/2000/svg" xmlns:xlink="http://www.w3.org/1999/xlink">
    <title>javascript-logo-svgrepo-com</title>
    <g id="blog-post" stroke="none" stroke-width="1" fill="none" fill-rule="evenodd">
        <g id="Artboard" transform="translate(-176.000000, -57.000000)">
            <rect id="Rectangle" stroke="#040202" fill="#101318" x="2.5" y="0.5" width="1304" height="910"></rect>
            <g id="javascript-logo-svgrepo-com" transform="translate(176.000000, 57.000000)" fill="#FFFFFF" fill-rule="nonzero">
                <path d="M0.000166998419,16.326977 L3.27166602,14.3472816 C3.90292005,15.4662036 4.47706061,16.4129709 5.85429657,16.4129709 C7.17441907,16.4129709 8.00690619,15.8966738 8.00690619,13.8882581 L8.00690619,0.229762223 L12.0243872,0.229762223 L12.0243872,13.9450307 C12.0243872,18.1056305 9.58520825,19.9994991 6.02647194,19.9994991 C2.81258737,19.9994991 0.947048034,18.3352258 0,16.3266431 M14.2065555,15.8965068 L17.4777205,14.0028052 C18.3389314,15.40893 19.4581548,16.4418581 21.438088,16.4418581 C23.1028953,16.4418581 24.1643372,15.609638 24.1643372,14.4618287 C24.1643372,13.0845912 23.0738375,12.5966805 21.2371889,11.7935146 L20.2330274,11.3627104 C17.3344359,10.1292413 15.4117831,8.57968207 15.4117831,5.30857601 C15.4117831,2.29561849 17.7075103,0 21.2948034,0 C23.8488772,0 25.6855258,0.8896607 27.0054813,3.21383249 L23.8772669,5.22258215 C23.1883985,3.98877905 22.4425835,3.50103527 21.2946364,3.50103527 C20.1179655,3.50103527 19.3718166,4.24709458 19.3718166,5.22258215 C19.3718166,6.42766497 20.1179655,6.91574272 21.8397192,7.66180203 L22.8440477,8.09210526 C26.2591654,9.55567059 28.1818182,11.0476222 28.1818182,14.4045552 C28.1818182,18.0203046 25.3408411,20 21.5240922,20 C17.7935145,20 15.3828924,18.2210126 14.2063885,15.8966738" id="Shape"></path>
            </g>
        </g>
    </g>
</svg>