<?xml version="1.0" encoding="UTF-8"?>
<svg width="65px" height="20px" viewBox="0 0 65 20" version="1.1" xmlns="http://www.w3.org/2000/svg" xmlns:xlink="http://www.w3.org/1999/xlink">
    <title>python-ar21</title>
    <defs>
        <linearGradient x1="0.970413676%" y1="-0.000311902235%" x2="74.0639661%" y2="64.1112562%" id="linearGradient-1">
            <stop stop-color="#FFFFFF" offset="0%"></stop>
            <stop stop-color="#FFFFFF" offset="100%"></stop>
        </linearGradient>
        <linearGradient x1="24.2275946%" y1="44.9144873%" x2="49.984237%" y2="82.2757447%" id="linearGradient-2">
            <stop stop-color="#FFFFFF" offset="0%"></stop>
            <stop stop-color="#FDFDFD" offset="100%"></stop>
        </linearGradient>
        <radialGradient cx="50.0002399%" cy="49.9983895%" fx="50.0002399%" fy="49.9983895%" r="49.9983269%" gradientTransform="translate(0.500002,0.499984),scale(0.193917,1.000000),rotate(-89.999996),translate(-0.500002,-0.499984)" id="radialGradient-3">
            <stop stop-color="#B8B8B8" stop-opacity="0.498" offset="0%"></stop>
            <stop stop-color="#7F7F7F" stop-opacity="0" offset="100%"></stop>
        </radialGradient>
    </defs>
    <g id="blog-post" stroke="none" stroke-width="1" fill="none" fill-rule="evenodd">
        <g id="Artboard" transform="translate(-93.000000, -57.000000)">
            <rect id="Rectangle" stroke="#040202" fill="#101318" x="2.5" y="0.5" width="1304" height="910"></rect>
            <g id="python-ar21" transform="translate(93.000000, 57.000000)" fill-rule="nonzero">
                <path d="M26.2123625,8.51976243 C26.2123625,6.4349451 25.6180187,5.36519456 24.4291601,5.30640955 C23.9561458,5.28419428 23.4944101,5.35767555 23.0449781,5.53368882 C22.6864579,5.66185382 22.4468748,5.7889935 22.3180263,5.91732938 L22.3180263,10.8930365 C23.0784719,11.370152 23.753816,11.5936718 24.3426915,11.5572729 C25.5901642,11.4749056 26.2121916,10.4635983 26.2121916,8.51959154 L26.2123625,8.51976243 Z M27.6789119,8.60623108 C27.6789119,9.66521576 27.4306136,10.5440859 26.9309409,11.2433541 C26.3741922,12.0345594 25.6026389,12.4419532 24.6161102,12.4643394 C23.8724114,12.4882635 23.1063265,12.2550032 22.3180263,11.7666091 L22.3180263,16.288783 L21.0426991,15.8338827 L21.0426991,5.79634162 C21.2520352,5.53966985 21.5211817,5.31922605 21.8458664,5.13210515 C22.604945,4.68985046 23.5273912,4.46222942 24.6142304,4.45112178 L24.6323444,4.46923577 C25.6243415,4.45676104 26.3890593,4.8622751 26.9261561,5.69005012 C27.426854,6.4477616 27.6780574,7.41891052 27.6780574,8.60623108 L27.6789119,8.60623108 Z M35.4713439,11.5740198 C35.4713439,12.9944298 35.3289953,13.9783952 35.0441272,14.5252326 C34.7580629,15.0720699 34.2139598,15.5088562 33.4104507,15.8342244 C32.7588598,16.0908962 32.0541232,16.2306815 31.2979497,16.2542639 L31.0872464,15.4505839 C31.8562364,15.3460012 32.3974345,15.2412477 32.7113533,15.1366651 C33.3294504,14.9273289 33.753762,14.6064037 33.9866805,14.1766238 C34.1736305,13.8263061 34.2657384,13.1581392 34.2657384,12.1687054 L34.2657384,11.8366726 C33.4053106,12.2299718 32.4699134,12.4322671 31.5238619,12.4296494 C30.8960243,12.4296494 30.3420097,12.2331297 29.8648941,11.8366726 C29.3291644,11.4055256 29.0612141,10.8585174 29.0612141,10.1958189 L29.0612141,4.88807899 L30.3365413,4.45129267 L30.3365413,9.79389342 C30.3365413,10.3646549 30.5207571,10.8041754 30.8890179,11.1124549 C31.2572787,11.4207345 31.7345651,11.5687223 32.3193393,11.5576147 C32.9037717,11.54514 33.5304131,11.3190569 34.1960167,10.8766313 L34.1960167,4.64371106 L35.4713439,4.64371106 L35.4713439,11.5740198 Z M40.451494,12.3946176 L40.0314546,12.4127316 C39.3103128,12.4127316 38.7477539,12.2411614 38.3459994,11.8966539 C37.9456119,11.5519754 37.7444783,11.0763979 37.7444783,10.4692375 L37.7444783,5.44431509 L36.8729563,5.44431509 L36.8729563,4.64200219 L37.7444783,4.64200219 L37.7444783,2.51292521 L39.0184384,2.059392 L39.0184384,4.64354017 L40.451494,4.64354017 L40.451494,5.44585307 L39.0184384,5.44585307 L39.0184384,10.4357437 C39.0184384,10.9142264 39.1466034,11.2534364 39.403617,11.4514941 C39.6257696,11.6146909 39.9743784,11.7081659 40.451494,11.7317482 L40.451494,12.3959847 L40.451494,12.3946176 Z M48.1733498,12.290035 L46.8980226,12.290035 L46.8980226,7.36730275 C46.8980226,6.86660482 46.7807944,6.43528687 46.547705,6.07539955 C46.2783876,5.66800574 45.9044875,5.46430883 45.4244669,5.46430883 C44.8400345,5.46430883 44.1086396,5.77258838 43.2309656,6.38931836 L43.2309656,12.290035 L41.9556384,12.290035 L41.9556384,0.523291751 L43.2309656,0.121366311 L43.2309656,5.48071395 C44.0457533,4.88773722 44.9360728,4.59210328 45.9029496,4.59210328 C46.5782937,4.59210328 47.1253019,4.81938255 47.5438033,5.27308665 C47.9638428,5.72661986 48.173008,6.29157118 48.173008,6.96691529 L48.173008,12.2917438 L48.1733498,12.290035 Z M54.9517403,8.3189706 C54.9517403,7.51802479 54.7979423,6.85669339 54.49684,6.33326753 C54.1367818,5.69586026 53.5774698,5.35921353 52.8211254,5.32452354 C51.4232724,5.40552382 50.7253713,6.40726146 50.7253713,8.32700227 C50.7253713,9.20741038 50.870625,9.9427357 51.1635247,10.5314403 C51.5374247,11.2833416 52.0982748,11.6546783 52.8462457,11.6422036 C54.2499088,11.631096 54.9515694,10.5232377 54.9515694,8.31709084 L54.9517403,8.3189706 Z M56.3483971,8.32751493 C56.3483971,9.467329 56.0566935,10.4162627 55.4768751,11.1739741 C54.8363918,12.0222556 53.9517116,12.4479342 52.8230051,12.4479342 C51.7040392,12.4479342 50.8318337,12.0207176 50.202629,11.1739741 C49.6318675,10.4162627 49.3473412,9.46749988 49.3473412,8.32751493 C49.3473412,7.25605553 49.6557916,6.35445748 50.2723507,5.62067013 C50.9239416,4.84211048 51.7807673,4.45146356 52.839752,4.45146356 C53.8987367,4.45146356 54.7610308,4.84211048 55.4252673,5.62067013 C56.0404593,6.35462836 56.3502768,7.25605553 56.3502768,8.32751493 L56.3483971,8.32751493 Z M63.6597831,12.290035 L62.3844559,12.290035 L62.3844559,7.08824482 C62.3844559,6.51748336 62.2128857,6.07249448 61.8695744,5.75156932 C61.527801,5.43201125 61.0686286,5.27718793 60.498038,5.28966266 C59.8924156,5.30077029 59.3161858,5.49899882 58.7691776,5.88263939 L58.7691776,12.290035 L57.4938504,12.290035 L57.4938504,5.72508188 C58.2278086,5.19071928 58.9031527,4.84159782 59.5198827,4.67857194 C60.1017518,4.52477394 60.6135574,4.45129267 61.0575209,4.45129267 C61.3603321,4.45129267 61.6450293,4.4803434 61.9128087,4.53912842 C62.4135066,4.65498958 62.8210713,4.86979412 63.135161,5.18508002 C63.4854787,5.53368882 63.6597831,5.95407002 63.6597831,6.44229322 L63.6597831,12.290035 L63.6597831,12.290035 Z" id="Shape" fill="#FFFFFF"></path>
                <path d="M8.44681375,0.570627358 C7.79060895,0.573703318 7.16396755,0.629583258 6.61268716,0.727159544 C4.98840939,1.01424914 4.69362989,1.61474489 4.69362989,2.72226138 L4.69362989,4.18505124 L8.53174443,4.18505124 L8.53174443,4.6725909 L3.25134643,4.6725909 C2.13579827,4.6725909 1.15901008,5.34315018 0.853806492,6.61847738 C0.501438185,8.08041281 0.485716612,8.99277672 0.853806492,10.5193073 C1.1267125,11.6557037 1.77830336,12.4651938 2.89368063,12.4651938 L4.21343836,12.4651938 L4.21343836,10.7117257 C4.21343836,9.44477196 5.30950544,8.32734404 6.61097829,8.32734404 L10.4448207,8.32734404 C11.5120079,8.32734404 12.3638779,7.4486448 12.3638779,6.37684363 L12.3638779,2.72209049 C12.3638779,1.68190335 11.4863749,0.900438624 10.4448207,0.726988658 C9.7855399,0.617279418 9.10130969,0.567380511 8.44510489,0.570456471 L8.44681375,0.570627358 Z M6.36934455,1.74684028 C6.76580161,1.74684028 7.08963185,2.075968 7.08963185,2.48045674 C7.08963185,2.88374928 6.76580161,3.20963015 6.36934455,3.20963015 C5.97152039,3.20963015 5.64905725,2.88357839 5.64905725,2.48045674 C5.64905725,2.07579712 5.9713495,1.74684028 6.36934455,1.74684028 Z" id="Shape" fill="url(#linearGradient-1)"></path>
                <path d="M12.8459492,4.6725909 L12.8459492,6.37701452 C12.8459492,7.69848111 11.7256162,8.81044065 10.4484093,8.81044065 L6.61456691,8.81044065 C5.56446835,8.81044065 4.69550965,9.70930452 4.69550965,10.7609411 L4.69550965,14.4158651 C4.69550965,15.4560522 5.60001277,16.0678265 6.61456691,16.3663655 C7.82786225,16.7235186 8.99467641,16.7881138 10.4484093,16.3663655 C11.4147734,16.086624 12.3674665,15.5235525 12.3674665,14.4158651 L12.3674665,12.9530752 L8.53362418,12.9530752 L8.53362418,12.4655356 L14.2865238,12.4655356 C15.402072,12.4655356 15.8176683,11.6874886 16.2055811,10.5196491 C16.6063103,9.3172905 16.5892216,8.16107132 16.2055811,6.61881915 C15.9299409,5.50839759 15.4034391,4.67293268 14.2865238,4.67293268 L12.8459492,4.67293268 L12.8459492,4.6725909 Z M10.6897013,13.9283254 C11.0875254,13.9283254 11.4099886,14.2543772 11.4099886,14.6574988 C11.4099886,15.0621585 11.0876963,15.3911153 10.6897013,15.3911153 C10.2932442,15.3911153 9.96941395,15.0619876 9.96941395,14.6574988 C9.96941395,14.2542063 10.2932442,13.9283254 10.6897013,13.9283254 Z" id="Shape" fill="url(#linearGradient-2)"></path>
                <path d="M13.7189033,18.8508805 C13.7189033,19.4016807 11.4160319,19.8483005 8.57535103,19.8483005 C5.73467011,19.8483005 3.43179872,19.4017966 3.43179872,18.8508805 C3.43179872,18.2999644 5.73467011,17.8534605 8.57535103,17.8534605 C11.4160319,17.8534605 13.7189033,18.2999644 13.7189033,18.8508805 Z" id="Path" fill="url(#radialGradient-3)" opacity="0.444"></path>
            </g>
        </g>
    </g>
</svg>