<?xml version="1.0" encoding="UTF-8"?>
<svg width="62px" height="23px" viewBox="0 0 62 23" version="1.1" xmlns="http://www.w3.org/2000/svg" xmlns:xlink="http://www.w3.org/1999/xlink">
    <title>reactjs-ar21</title>
    <defs>
        <filter id="filter-1">
            <feColorMatrix in="SourceGraphic" type="matrix" values="0 0 0 0 0.000000 0 0 0 0 0.000000 0 0 0 0 0.000000 0 0 0 1.000000 0"></feColorMatrix>
        </filter>
    </defs>
    <g id="blog-post" stroke="none" stroke-width="1" fill="none" fill-rule="evenodd">
        <g id="reactjs-ar21" transform="translate(-50.000000, -145.000000)" filter="url(#filter-1)">
            <g transform="translate(51.000000, 146.000000)">
                <g id="Group" transform="translate(0.216116, 0.297254)">
                    <circle id="Oval" fill="#00D8FF" fill-rule="nonzero" cx="10.9840995" cy="9.68403991" r="2.0444528"></circle>
                    <g id="Path" stroke="#00D8FF" stroke-width="1.66272">
                        <path d="M10.9841402,5.52723991 C13.7290953,5.52723991 16.2790884,5.92111708 18.2017714,6.58302635 C20.5183316,7.38056141 21.9426469,8.58941591 21.9426469,9.68403991 C21.9426469,10.8247147 20.4331579,12.1089622 17.9454761,12.9331904 C16.0647279,13.5563029 13.5898018,13.8815928 10.9841402,13.8815928 C8.31262193,13.8815928 5.78284235,13.5762718 3.88090259,12.9263439 C1.47460442,12.103868 0.0252668235,10.8029934 0.0252668235,9.68403991 C0.0252668235,8.59830005 1.38519247,7.39877798 3.66919106,6.60246551 C5.59904659,5.92963445 8.21200292,5.52723991 10.9837735,5.52723991 L10.9841402,5.52723991 Z"></path>
                        <path d="M7.36552358,7.61762127 C8.73686005,5.23976866 10.3518991,3.22755144 11.8858398,1.89264809 C13.7339857,0.284292518 15.4927604,-0.345584941 16.4409591,0.201197271 C17.4291364,0.771045647 17.7875177,2.72029958 17.2587483,5.28700132 C16.8593695,7.22757487 15.9043651,9.53394682 14.6026346,11.7911707 C13.2679758,14.1054488 11.7397405,16.1443999 10.2267061,17.4669144 C8.31213289,19.1405561 6.46113431,19.7462264 5.4918256,19.1872183 C4.55124772,18.6452041 4.19156226,16.8675608 4.64277882,14.4911346 C5.02402259,12.4832372 5.98077939,10.0187031 7.36507529,7.61758052 L7.36552358,7.61762127 Z"></path>
                        <path d="M7.36894682,11.7972429 C5.99373882,9.42208 5.05744,7.01745271 4.66661929,5.02186268 C4.19616734,2.61743915 4.52879285,0.779073976 5.47613572,0.2307024 C6.46333496,-0.340816847 8.33108301,0.322152 10.2906882,2.06213958 C11.7723021,3.37764452 13.2936909,5.35648508 14.5992114,7.61158984 C15.937701,9.92362645 16.9408754,12.2659832 17.3311256,14.2372845 C17.8249289,16.7318943 17.4252648,18.6379501 16.4568527,19.1985476 C15.5172121,19.7425178 13.7977233,19.1665973 11.9642485,17.5888064 C10.4151069,16.2557777 8.75772555,14.1960018 7.36894682,11.7972022 L7.36894682,11.7972429 Z"></path>
                    </g>
                </g>
                <path d="M33.8941176,15.2047059 L31.3882353,11.4188235 C32.6547059,11.3070588 33.7958824,10.3894118 33.7958824,8.71294118 C33.7958824,7.00705882 32.5852941,5.91529412 30.8870588,5.91529412 L27.1576471,5.91529412 L27.1576471,15.1976471 L28.3129412,15.1976471 L28.3129412,11.5094118 L30.1641176,11.5094118 L32.53,15.1976471 L33.8941176,15.2047059 Z M30.7488235,10.5005882 L28.3135294,10.5005882 L28.3135294,6.95176471 L30.7488235,6.95176471 C31.8488235,6.95176471 32.6,7.67529412 32.6,8.71941176 C32.6,9.76352941 31.8482353,10.5017647 30.7488235,10.5017647 L30.7488235,10.5005882 Z M38.1947059,15.3711765 C39.2947059,15.3711765 40.1988235,15.0094118 40.8670588,14.3417647 L40.3658824,13.6594118 C39.8364706,14.2023529 39.0576471,14.5082353 38.2923529,14.5082353 C36.8452941,14.5082353 35.9541176,13.4505882 35.8705882,12.1847059 L41.3117647,12.1847059 L41.3117647,11.92 C41.3117647,9.90235294 40.1147059,8.31529412 38.0823529,8.31529412 C36.1617647,8.31529412 34.7705882,9.88823529 34.7705882,11.8364706 C34.7705882,13.9382353 36.2041176,15.3658824 38.1941176,15.3658824 L38.1947059,15.3711765 Z M40.2829412,11.4182353 L35.8711765,11.4182353 C35.9270588,10.3888235 36.6358824,9.17705882 38.07,9.17705882 C39.6011765,9.17705882 40.2688235,10.4158824 40.2829412,11.4182353 Z M48.2441176,15.2041176 L48.2441176,10.5835294 C48.2441176,8.95529412 47.0617647,8.31470588 45.6417647,8.31470588 C44.5417647,8.31470588 43.6794118,8.67647059 42.9558824,9.42823529 L43.4429412,10.1517647 C44.0411765,9.51176471 44.6958824,9.21941176 45.5029412,9.21941176 C46.4770588,9.21941176 47.2011765,9.73411765 47.2011765,10.6388235 L47.2011765,11.8494118 C46.6582353,11.2229412 45.8929412,10.9305882 44.9741176,10.9305882 C43.8329412,10.9305882 42.6211765,11.6405882 42.6211765,13.1435294 C42.6211765,14.6047059 43.8317647,15.3705882 44.9741176,15.3705882 C45.8788235,15.3705882 46.6447059,15.0505882 47.2011765,14.4382353 L47.2011765,15.2029412 L48.2441176,15.2041176 Z M45.35,14.6194118 C44.3758824,14.6194118 43.6935294,14.0076471 43.6935294,13.1582353 C43.6935294,12.2952941 44.3758824,11.6829412 45.35,11.6829412 C46.0876471,11.6829412 46.7970588,11.9611765 47.2011765,12.5182353 L47.2011765,13.7847059 C46.7976471,14.3411765 46.0876471,14.62 45.35,14.62 L45.35,14.6194118 Z M53.2911765,15.3711765 C54.5158824,15.3711765 55.2394118,14.87 55.7547059,14.2023529 L55.0588235,13.5623529 C54.6135294,14.1605882 54.0429412,14.4388235 53.3529412,14.4388235 C51.9194118,14.4388235 51.0294118,13.3252941 51.0294118,11.8364706 C51.0294118,10.3476471 51.92,9.24823529 53.3529412,9.24823529 C54.0488235,9.24823529 54.6194118,9.51294118 55.0588235,10.1247059 L55.7547059,9.48470588 C55.24,8.81647059 54.5158824,8.31588235 53.2911765,8.31588235 C51.2870588,8.31588235 49.9370588,9.84705882 49.9370588,11.8370588 C49.9370588,13.8411765 51.2870588,15.3664706 53.2911765,15.3664706 L53.2911765,15.3711765 Z M58.9147059,15.3711765 C59.5264706,15.3711765 59.9029412,15.19 60.1676471,14.94 L59.8617647,14.1605882 C59.7223529,14.3135294 59.45,14.4388235 59.1517647,14.4388235 C58.6929412,14.4388235 58.4694118,14.0770588 58.4694118,13.5758824 L58.4694118,9.40058824 L59.8341176,9.40058824 L59.8341176,8.48235294 L58.4694118,8.48235294 L58.4694118,6.64529412 L57.4252941,6.64529412 L57.4252941,8.48235294 L56.3117647,8.48235294 L56.3117647,9.40117647 L57.4252941,9.40117647 L57.4252941,13.7994118 C57.4252941,14.8017647 57.9264706,15.3723529 58.9147059,15.3723529 L58.9147059,15.3711765 Z" id="Shape" fill="#00D8FF"></path>
            </g>
        </g>
    </g>
</svg>