<?xml version="1.0" encoding="UTF-8"?>
<svg width="60px" height="20px" viewBox="0 0 60 20" version="1.1" xmlns="http://www.w3.org/2000/svg" xmlns:xlink="http://www.w3.org/1999/xlink">
    <title>redis-ar21</title>
    <g id="blog-post" stroke="none" stroke-width="1" fill="none" fill-rule="evenodd">
        <g id="Artboard" transform="translate(-51.000000, -180.000000)" fill-rule="nonzero">
            <g id="redis-ar21" transform="translate(51.000000, 180.000000)">
                <path d="M32.8223045,6.38101176 C32.8223045,6.85318114 32.4345256,7.27448144 31.9288348,7.27448144 C31.541056,7.27448144 31.2040157,7.37569785 30.9174533,7.59482618 C30.5972389,7.79725902 30.3443283,8.08369105 30.1421564,8.40390537 C29.7375515,8.94337844 29.5356404,9.58380707 29.4511195,9.81963089 L29.4511195,13.0222958 C29.4511195,13.5111606 29.0298192,13.9157655 28.5241284,13.9157655 C28.0321577,13.9122132 27.634211,13.5142665 27.6306587,13.0222958 L27.6306587,6.38101176 C27.6306587,5.89214689 28.0350027,5.50449844 28.5241284,5.50449844 C29.0298192,5.50449844 29.4511195,5.89227732 29.4511195,6.38101176 L29.4511195,6.4990541 C29.5522055,6.38101176 29.6858999,6.24627392 29.8051161,6.16188343 C30.3614151,5.79119134 31.0859734,5.48754208 31.9288348,5.50449844 C32.4345256,5.50449844 32.8223045,5.89227732 32.8223045,6.38101176 Z M32.3266571,9.70184942 C32.3436135,7.40948014 34.130292,5.48793338 36.4392263,5.48793338 C38.6305096,5.48793338 40.3652755,7.12291767 40.5015786,9.39833059 L40.5015786,9.48259065 C40.5015786,9.51650337 40.5015786,9.60050257 40.4846222,9.63428485 C40.4324488,10.0388897 40.0800174,10.3086262 39.6081089,10.3086262 L34.2492473,10.3086262 C34.3335074,10.6964051 34.5188534,11.1345313 34.8223723,11.4212242 C35.1763689,11.825829 35.8505798,12.1289565 36.4404002,12.1795647 C37.047177,12.2300425 37.7708222,12.0784788 38.1934268,11.7582644 C38.547293,11.3873115 39.2384603,11.4380501 39.4575886,11.706091 C39.6767169,11.9408714 39.845237,12.4479969 39.4575886,12.8017327 C38.6315531,13.5600732 37.6371278,13.9143307 36.4402698,13.9143307 C34.1313354,13.8977656 32.3446569,11.9930448 32.3277006,9.70067552 L32.3266571,9.70184942 Z M34.1639438,8.87594431 L38.933898,8.87594431 C38.7653779,8.20160296 37.9056905,7.20730817 36.4392263,7.08926582 C35.0066748,7.15656952 34.3001164,8.18490747 34.1638134,8.87594431 L34.1639438,8.87594431 Z M49.0899743,13.0057307 C49.0899743,13.4945956 48.6853695,13.9161568 48.1795483,13.9161568 C47.7230309,13.9161568 47.3705995,13.5959424 47.2860786,13.1913376 C46.6469543,13.6295943 45.8365708,13.9161568 44.9937093,13.9161568 C42.7182964,13.9161568 40.8978356,11.99461 40.8978356,9.71906664 C40.8978356,7.40974101 42.7182964,5.48819425 44.9937093,5.48819425 C45.8197449,5.48819425 46.6286936,5.75780036 47.2522963,6.19605701 L47.2522963,3.02730485 C47.2522963,2.53843998 47.6569011,2.11687882 48.1792874,2.11687882 C48.6849782,2.11687882 49.0897134,2.53817912 49.0897134,3.02730485 L49.0897134,13.0058612 L49.0899743,13.0057307 Z M44.9941006,7.32535051 C44.3873238,7.32535051 43.8310248,7.57813069 43.409855,8.01638735 C42.9885547,8.43768765 42.7355136,9.04446443 42.7355136,9.71880578 C42.7355136,10.3579301 42.9882938,10.9660112 43.409855,11.3874419 C43.8311553,11.8256986 44.3873238,12.0787396 44.9941006,12.0787396 C45.6175729,12.0787396 46.1571764,11.8259594 46.5784767,11.3874419 C46.999777,10.9661416 47.252818,10.3592344 47.252818,9.71880578 C47.252818,9.04446443 47.0000379,8.43794852 46.5784767,8.01638735 C46.1571764,7.57813069 45.6177033,7.32535051 44.9941006,7.32535051 Z M52.2973348,3.38104058 C52.2973348,3.88673138 51.9096863,4.30803168 51.3869088,4.30803168 C50.881218,4.30803168 50.4767357,3.88673138 50.4767357,3.38104058 L50.4767357,3.02704398 C50.475733,2.78533283 50.5712964,2.55322778 50.7422013,2.38229844 C50.9131061,2.2113691 51.1451975,2.11577246 51.3869088,2.11674098 C51.9095559,2.11674098 52.2973348,2.52135319 52.2973348,3.02717442 L52.2973348,3.38104058 Z M52.2973348,6.43318517 L52.2973348,13.0070351 C52.2973348,13.5127258 51.9096863,13.9174685 51.3869088,13.9174685 C51.1451975,13.918437 50.9131061,13.8228404 50.7422013,13.651911 C50.5712964,13.4809817 50.475733,13.2488766 50.4767357,13.0071655 L50.4767357,6.4333156 C50.4767357,5.89397296 50.8810875,5.50619408 51.3869088,5.50619408 C51.9096863,5.50619408 52.2973348,5.89397296 52.2973348,6.4333156 L52.2973348,6.43318517 Z M53.4555845,11.5044408 C53.7589729,11.1000969 54.3490542,11.0494886 54.7197463,11.369703 C55.158003,11.7406559 55.9166044,12.1280435 56.5738589,12.111348 C57.0303763,12.111348 57.4503722,11.9597842 57.7201088,11.7911337 C57.9548891,11.5889617 58.0233667,11.4204416 58.0233667,11.2854429 C58.0233667,11.2011828 58.0064104,11.167531 57.972889,11.1167923 C57.9559326,11.0663146 57.8886289,10.9988804 57.7537606,10.9146204 C57.5189803,10.7459698 57.0121156,10.5604933 56.4053388,10.442451 L56.3883824,10.442451 C55.8657353,10.341365 55.3600445,10.2076706 54.9219183,10.0041943 C54.4654009,9.78506601 54.061057,9.48180805 53.7588425,9.02672547 C53.5736269,8.72333708 53.4724105,8.35238412 53.4724105,7.96499654 C53.4724105,7.18956921 53.9106671,6.53218422 54.4668357,6.11075349 C55.0567865,5.70640954 55.7646493,5.48728122 56.5402071,5.48728122 C57.7031524,5.48728122 58.5290575,6.04358022 59.0685306,6.41427231 C59.4731354,6.68400885 59.5910473,7.24030785 59.3381367,7.66147772 C59.0685306,8.06608253 58.5122316,8.18412487 58.0909313,7.89625807 C57.5515887,7.5423919 57.0795497,7.27252493 56.5387723,7.27252493 C56.117472,7.27252493 55.746519,7.4073932 55.5273907,7.57591332 C55.3082624,7.72773795 55.2577846,7.87943214 55.2577846,7.9636922 C55.2577846,8.03099591 55.2577846,8.04795226 55.2914365,8.09843004 C55.3083928,8.13208189 55.3588706,8.19951603 55.4769129,8.26695016 C55.6960413,8.41864436 56.1342979,8.57033855 56.7074229,8.67155497 L56.7243792,8.68851133 L56.7413356,8.68851133 C57.2976346,8.78946688 57.8200209,8.94129151 58.3088857,9.17724576 C58.7654031,9.37941773 59.2193118,9.69976248 59.5057438,10.171671 C59.7079158,10.5087112 59.8259581,10.8964901 59.8259581,11.284269 C59.8259581,12.1101741 59.3694408,12.8012109 58.7639683,13.2407719 C58.1571915,13.6620722 57.3985901,13.9151133 56.572685,13.9151133 C55.257915,13.8981569 54.2466639,13.291641 53.572453,12.7521679 C53.2015,12.4487795 53.1511527,11.8756546 53.4542802,11.5047017 L53.4555845,11.5044408 Z" id="Shape" fill="#000000"></path>
                <path d="M21.4915438,15.1552753 C20.3074682,15.7724867 14.1734402,18.2945495 12.8675397,18.9752821 C11.5616392,19.6560146 10.8361679,19.6496234 9.80456915,19.1565847 C8.77297036,18.6635459 2.24529395,16.0267017 1.06943568,15.4646636 C0.481702201,15.1837098 0.172705169,14.9468425 0.172705169,14.7227577 L0.172705169,12.4799532 C0.172705169,12.4799532 8.67084091,10.629884 10.0428712,10.1377583 C11.4149015,9.64563257 11.890723,9.62906751 13.0582335,10.0555851 C14.2257441,10.4821028 21.2069379,11.7428733 22.3607529,12.1654779 L22.3602311,14.3763262 C22.3603616,14.5980632 22.0941467,14.8413218 21.4915438,15.1554057 L21.4915438,15.1552753 Z" id="Path" fill="#000000"></path>
                <path d="M21.4915438,12.9118186 C20.3074682,13.5287692 14.1734402,16.0510928 12.8675397,16.7318254 C11.5616392,17.4125579 10.8361679,17.4061667 9.80456915,16.913128 C8.77297036,16.4200892 2.24529395,13.7829841 1.06943568,13.2212069 C-0.106422584,12.6594297 -0.131074521,12.272303 1.02404482,11.8200899 L10.0430016,8.32838435 C11.4149015,7.83638908 11.8908535,7.81969359 13.058364,8.24621123 C14.2258745,8.67272887 20.3235116,11.1008795 21.4771961,11.5234841 C22.6308807,11.9460887 22.6756194,12.2947375 21.4902395,12.911949 L21.4915438,12.9118186 Z" id="Path" fill="#000000"></path>
                <path d="M21.4915438,11.4979191 C20.3074682,12.1151306 14.1734402,14.6371933 12.8675397,15.3183172 C11.5616392,15.9994411 10.8361679,15.9923977 9.80456915,15.4992285 C8.77297036,15.0060593 2.24529395,12.3693455 1.06943568,11.8073074 C0.481702201,11.5263536 0.172705169,11.2894863 0.172705169,11.0656624 L0.172705169,8.822597 C0.172705169,8.822597 8.67084091,6.97265825 10.0428712,6.48040211 C11.4149015,5.98814597 11.890723,5.97171134 13.0582335,6.39822898 C14.2257441,6.82474663 21.2069379,8.08525625 22.3607529,8.50799132 L22.3602311,10.7192309 C22.3603616,10.9409679 22.0941467,11.184096 21.4915438,11.49818 L21.4915438,11.4979191 Z" id="Path" fill="#000000"></path>
                <path d="M21.4915438,9.25446241 C20.3074682,9.87167387 14.1734402,12.3937366 12.8675397,13.0748605 C11.5616392,13.7559844 10.8361679,13.748941 9.80456915,13.2557718 C8.77297036,12.7626026 2.24529395,10.1257584 1.06943568,9.56385074 C-0.106422584,9.0019431 -0.131074521,8.61507725 1.02404482,8.16260334 L10.0430016,4.67115862 C11.4149015,4.17903292 11.8908535,4.16246786 13.058364,4.5889855 C14.2258745,5.01550314 20.3235116,7.44352329 21.4771961,7.86625836 C22.6308807,8.28899343 22.6756194,8.63751182 21.4902395,9.25472328 L21.4915438,9.25446241 Z" id="Path" fill="#000000"></path>
                <path d="M21.4915438,7.70491208 C20.3074682,8.32212354 14.1734402,10.8444471 12.8675397,11.5266145 C11.5616392,12.2087819 10.8361679,12.200695 9.80456915,11.7075258 C8.77297036,11.2143566 2.24529395,8.57751239 1.06943568,8.01560475 C0.481702201,7.73465093 0.172705169,7.49778364 0.172705169,7.2739597 L0.172705169,5.02972039 C0.172705169,5.02972039 8.67084091,3.17978165 10.0428712,2.68765594 C11.4149015,2.19553023 11.890723,2.17896518 13.0582335,2.60548282 C14.2257441,3.03200046 21.2069379,4.29251009 22.3607529,4.71524515 L22.3602311,6.92635435 C22.3603616,7.14783048 22.0941467,7.39108901 21.4915438,7.70504252 L21.4915438,7.70491208 Z" id="Path" fill="#000000"></path>
                <path d="M21.4915438,5.46145538 C20.3074682,6.07866684 14.1734402,8.60099043 12.8675397,9.28185345 C11.5616392,9.96271648 10.8361679,9.95593393 9.80456915,9.46289519 C8.77297036,8.96985645 2.24529395,6.33288179 1.06943568,5.77097414 C-0.106422584,5.2090665 -0.131074521,4.82207022 1.02404482,4.36972674 L10.0430016,0.87828202 C11.4149015,0.38602588 11.8908535,0.369591255 13.058364,0.796108896 C14.2258745,1.22262654 20.3235116,3.65064669 21.4771961,4.07338176 C22.6308807,4.49611683 22.6756194,4.84450478 21.4902395,5.46158581 L21.4915438,5.46145538 Z" id="Path" fill="#000000"></path>
                <g id="Group" transform="translate(3.913017, 1.650188)" fill="#FFFFFF">
                    <path d="M7.21297418,1.73085294 L4.99299551,1.53128964 L6.64950133,0.933904071 L6.15385392,0.0169563588 L7.70601292,0.623472271 L9.16686845,0.144781218 L8.77165485,1.09303298 L10.2625101,1.65128848 L8.33991987,1.85085178 L7.90948922,2.88649401 L7.21297418,1.73085294 Z M4.20517699,5.18734146 L9.34686672,4.39821861 L7.79470772,6.67558804 L4.20517699,5.18734146 Z" id="Shape"></path>
                    <ellipse id="Oval" cx="2.81866857" cy="3.29214228" rx="2.74810403" ry="1.06525063"></ellipse>
                </g>
                <polygon id="Path" fill-opacity="0" fill="#FFFFFF" points="19.4893891 4.78711403 16.4502879 5.9871025 16.4502879 3.58321255"></polygon>
                <polygon id="Path" fill-opacity="0" fill="#FFFFFF" points="16.4476792 3.58451689 16.4476792 5.98840684 16.1176824 6.11884036 13.0785812 4.91885189"></polygon>
            </g>
        </g>
    </g>
</svg>