<?xml version="1.0" encoding="UTF-8"?>
<svg width="400px" height="400px" viewBox="0 0 400 400" version="1.1" xmlns="http://www.w3.org/2000/svg" xmlns:xlink="http://www.w3.org/1999/xlink">
    <title>hero-pattern</title>
    <g id="Page-1" stroke="none" stroke-width="1" fill="none" fill-rule="evenodd">
        <g id="hero-pattern" fill-rule="nonzero">
            <polygon id="Path" fill="#0C1E29" points="0 0 100 0 100 100 25 100 0 100"></polygon>
            <polygon id="Path" fill="#0C1E29" points="200 0 400 0 400 200 250 200 200 200"></polygon>
            <polygon id="Path" fill="#0C1E29" points="100 0 200 0 200 100 125 100 100 100"></polygon>
            <rect id="Rectangle" fill="#10222E" x="0" y="0" width="100" height="50"></rect>
            <rect id="Rectangle" fill="#10222E" x="150" y="0" width="50" height="10"></rect>
            <rect id="Rectangle" fill="#10222E" x="150" y="20" width="50" height="10"></rect>
            <rect id="Rectangle" fill="#10222E" x="150" y="40" width="50" height="10"></rect>
            <rect id="Rectangle" fill="#10222E" x="150" y="60" width="50" height="10"></rect>
            <rect id="Rectangle" fill="#10222E" x="150" y="80" width="50" height="10"></rect>
            <rect id="Rectangle" fill="#142936" x="300" y="0" width="100" height="100"></rect>
            <rect id="Rectangle" fill="#0C1E29" x="300" y="50" width="50" height="50"></rect>
            <rect id="Rectangle" fill="#0C1E29" x="350" y="0" width="50" height="50"></rect>
            <polygon id="Path" fill="#10222E" points="350 50 400 50 350 100"></polygon>
            <polygon id="Path" fill="#142936" points="0 50 25 50 75 100 0 100"></polygon>
            <rect id="Rectangle" fill="#142936" x="100" y="0" width="50" height="100"></rect>
            <rect id="Rectangle" fill="#10222E" x="200" y="100" width="100" height="100"></rect>
            <rect id="Rectangle" fill="#0C1E29" x="0" y="100" width="100" height="100"></rect>
            <rect id="Rectangle" fill="#10222E" x="0" y="200" width="100" height="100"></rect>
            <rect id="Rectangle" fill="#10222E" x="0" y="300" width="100" height="100"></rect>
            <rect id="Rectangle" fill="#10222E" x="100" y="300" width="100" height="100"></rect>
            <rect id="Rectangle" fill="#142936" x="0" y="305" width="200" height="5"></rect>
            <rect id="Rectangle" fill="#142936" x="0" y="315" width="200" height="5"></rect>
            <rect id="Rectangle" fill="#142936" x="0" y="325" width="200" height="5"></rect>
            <rect id="Rectangle" fill="#142936" x="0" y="335" width="200" height="5"></rect>
            <rect id="Rectangle" fill="#142936" x="0" y="345" width="200" height="5"></rect>
            <rect id="Rectangle" fill="#142936" x="0" y="355" width="200" height="5"></rect>
            <rect id="Rectangle" fill="#142936" x="0" y="365" width="200" height="5"></rect>
            <rect id="Rectangle" fill="#142936" x="0" y="375" width="200" height="5"></rect>
            <rect id="Rectangle" fill="#142936" x="0" y="385" width="200" height="5"></rect>
            <rect id="Rectangle" fill="#142936" x="0" y="395" width="200" height="5"></rect>
            <path d="M0,400 C0,344.77 44.77,300 100,300 C155.23,300 200,344.77 200,400 L0,400 Z" id="Path" fill="#0C1E29"></path>
            <path d="M0.5,390 C0.66,388.32 0.87,386.65 1.12,385 L198.88,385 C199.13,386.65 199.34,388.32 199.51,390 L0.49,390 L0.5,390 Z M0.12,395 L199.88,395 C199.96,396.66 200,398.32 200,400 L0,400 C0,398.32 0.04,396.66 0.12,395 Z M2,380 C2.34,378.32 2.73,376.65 3.15,375 L196.85,375 C197.27,376.65 197.65,378.32 198,380 L2,380 Z M4.58,370 C5.11,368.31 5.68,366.65 6.3,365 L193.7,365 C194.317644,366.651093 194.891181,368.318351 195.42,370 L4.58,370 Z M8.32,360 C9.06,358.3 9.84,356.64 10.67,355 L189.33,355 C190.16,356.64 190.94,358.3 191.68,360 L8.32,360 Z M13.38,350 C14.36,348.3 15.39,346.63 16.47,345 L183.53,345 C184.61,346.63 185.63,348.3 186.63,350 L13.37,350 L13.38,350 Z M19.99,340 C21.28,338.29 22.62,336.62 24,335 L176,335 C177.38,336.62 178.72,338.29 180,340 L20,340 L19.99,340 Z M28.59,330 C30.29,328.27 32.04,326.6 33.85,325 L166.15,325 C167.96,326.6 169.72,328.27 171.41,330 L28.6,330 L28.59,330 Z M39.99,320 C42.35,318.23 44.79,316.56 47.29,315 L152.7,315 C155.22,316.56 157.65,318.23 160.01,320 L39.99,320 Z M56.36,310 C60.3536549,308.059685 64.4728898,306.389274 68.69,305 L131.31,305 C135.52711,306.389274 139.646345,308.059685 143.64,310 L56.36,310 L56.36,310 Z" id="Shape" fill="#10222E"></path>
            <path d="M50,400 C50,372.385763 72.3857625,350 100,350 C127.614237,350 150,372.385763 150,400 L50,400 Z" id="Path" fill="#142936"></path>
            <path d="M75,400 C75,386.192881 86.1928813,375 100,375 C113.807119,375 125,386.192881 125,400 L75,400 Z" id="Path" fill="#10222E"></path>
            <rect id="Rectangle" fill="#10222E" x="300" y="300" width="100" height="100"></rect>
            <polygon id="Path" fill="#0C1E29" points="350 350 400 350 400 400 300 400"></polygon>
            <rect id="Rectangle" fill="#0C1E29" x="200" y="300" width="100" height="100"></rect>
            <rect id="Rectangle" fill="#0C1E29" x="300" y="200" width="100" height="100"></rect>
            <polygon id="Path" fill="#142936" points="350 250 350 200 300 250"></polygon>
            <rect id="Rectangle" fill="#10222E" x="200" y="200" width="100" height="100"></rect>
            <path d="M290,200 L290,300 L280,300 L280,200 L290,200 Z M270,200 L270,300 L260,300 L260,200 L270,200 Z M250,200 L250,300 L240,300 L240,200 L250,200 Z M230,200 L230,300 L220,300 L220,200 L230,200 Z M210,200 L210,300 L200,300 L200,200 L210,200 Z" id="Shape" fill="#0C1E29"></path>
            <rect id="Rectangle" fill="#142936" x="350" y="250" width="50" height="2"></rect>
            <rect id="Rectangle" fill="#142936" x="350" y="260" width="50" height="2"></rect>
            <rect id="Rectangle" fill="#142936" x="350" y="270" width="50" height="2"></rect>
            <rect id="Rectangle" fill="#142936" x="350" y="280" width="50" height="2"></rect>
            <rect id="Rectangle" fill="#142936" x="350" y="290" width="50" height="2"></rect>
            <rect id="Rectangle" fill="#10222E" x="350" y="200" width="50" height="25"></rect>
            <path d="M292,200 L292,300 L290,300 L290,200 L292,200 Z M272,200 L272,300 L270,300 L270,200 L272,200 Z M252,200 L252,300 L250,300 L250,200 L252,200 Z M232,200 L232,300 L230,300 L230,200 L232,200 Z M212,200 L212,300 L210,300 L210,200 L212,200 Z" id="Shape" fill="#142936"></path>
            <path d="M350,250 L350,350 C322.385763,350 300,327.614237 300,300 C300,272.385763 322.385763,250 350,250 Z" id="Path" fill="#142936"></path>
            <path d="M300,300 C300,272.385763 322.385763,250 350,250 L350,300 L300,300 Z" id="Path" fill="#10222E"></path>
            <path d="M100,300 L0,300 L0,200 C55.23,200 100,244.77 100,300 Z" id="Path" fill="#0C1E29"></path>
            <circle id="Oval" fill="#142936" cx="12.5" cy="287.5" r="2.5"></circle>
            <circle id="Oval" fill="#142936" cx="12.5" cy="272.5" r="2.5"></circle>
            <circle id="Oval" fill="#142936" cx="12.5" cy="257.5" r="2.5"></circle>
            <circle id="Oval" fill="#142936" cx="12.5" cy="242.5" r="2.5"></circle>
            <circle id="Oval" fill="#142936" cx="12.5" cy="227.5" r="2.5"></circle>
            <circle id="Oval" fill="#142936" cx="12.5" cy="212.5" r="2.5"></circle>
            <circle id="Oval" fill="#142936" cx="27.5" cy="287.5" r="2.5"></circle>
            <circle id="Oval" fill="#142936" cx="27.5" cy="272.5" r="2.5"></circle>
            <circle id="Oval" fill="#142936" cx="27.5" cy="257.5" r="2.5"></circle>
            <circle id="Oval" fill="#142936" cx="27.5" cy="242.5" r="2.5"></circle>
            <circle id="Oval" fill="#142936" cx="27.5" cy="227.5" r="2.5"></circle>
            <circle id="Oval" fill="#142936" cx="42.5" cy="287.5" r="2.5"></circle>
            <circle id="Oval" fill="#142936" cx="42.5" cy="272.5" r="2.5"></circle>
            <circle id="Oval" fill="#142936" cx="42.5" cy="257.5" r="2.5"></circle>
            <circle id="Oval" fill="#142936" cx="42.5" cy="242.5" r="2.5"></circle>
            <circle id="Oval" fill="#142936" cx="42.5" cy="227.5" r="2.5"></circle>
            <circle id="Oval" fill="#142936" cx="57.5" cy="287.5" r="2.5"></circle>
            <circle id="Oval" fill="#142936" cx="57.5" cy="272.5" r="2.5"></circle>
            <circle id="Oval" fill="#142936" cx="57.5" cy="257.5" r="2.5"></circle>
            <circle id="Oval" fill="#142936" cx="57.5" cy="242.5" r="2.5"></circle>
            <circle id="Oval" fill="#142936" cx="72.5" cy="287.5" r="2.5"></circle>
            <circle id="Oval" fill="#142936" cx="72.5" cy="272.5" r="2.5"></circle>
            <circle id="Oval" fill="#142936" cx="72.5" cy="257.5" r="2.5"></circle>
            <circle id="Oval" fill="#142936" cx="87.5" cy="287.5" r="2.5"></circle>
            <rect id="Rectangle" fill="#0C1E29" x="100" y="100" width="100" height="100"></rect>
            <rect id="Rectangle" fill="#142936" x="100" y="200" width="100" height="100"></rect>
            <polygon id="Path" fill="#10222E" transform="translate(175.000000, 250.000000) rotate(-90.000000) translate(-175.000000, -250.000000) " points="125 275 175 225 225 275"></polygon>
            <polygon id="Path" fill="#0C1E29" transform="translate(125.000000, 250.000000) rotate(-90.000000) translate(-125.000000, -250.000000) " points="75 275 125 225 175 275"></polygon>
            <polygon id="Path" fill="#10222E" points="100 100 200 100 100 200"></polygon>
            <polygon id="Path" fill="#10222E" points="300 100 400 200 400 100"></polygon>
            <polygon id="Path" fill="#142936" points="350 150 400 200 300 200"></polygon>
            <circle id="Oval" fill="#10222E" cx="115" cy="20" r="5"></circle>
            <circle id="Oval" fill="#10222E" cx="135" cy="20" r="5"></circle>
            <circle id="Oval" fill="#10222E" cx="115" cy="40" r="5"></circle>
            <circle id="Oval" fill="#10222E" cx="135" cy="40" r="5"></circle>
            <circle id="Oval" fill="#10222E" cx="115" cy="60" r="5"></circle>
            <circle id="Oval" fill="#10222E" cx="135" cy="60" r="5"></circle>
            <circle id="Oval" fill="#10222E" cx="115" cy="80" r="5"></circle>
            <circle id="Oval" fill="#10222E" cx="135" cy="80" r="5"></circle>
            <circle id="Oval" fill="#142936" cx="235" cy="335" r="5"></circle>
            <circle id="Oval" fill="#142936" cx="265" cy="335" r="5"></circle>
            <circle id="Oval" fill="#142936" cx="235" cy="365" r="5"></circle>
            <circle id="Oval" fill="#142936" cx="265" cy="365" r="5"></circle>
            <path d="M200,0 C255.23,0 300,44.77 300,100 C300,155.23 255.23,200 200,200 L200,0 Z" id="Path" fill="#0C1E29"></path>
            <path d="M300,100 L200,100 L200,0 C255.23,0 300,44.77 300,100 Z" id="Path" fill="#10222E"></path>
            <path d="M200,13 C248.048773,13 287,51.9512268 287,100 C287,148.048773 248.048773,187 200,187 L200,183 C245.839634,183 283,145.839634 283,100 C283,54.1603658 245.839634,17 200,17 L200,13 L200,13 Z M200,33 C237.003078,33 267,62.9969218 267,100 C267,137.003078 237.003078,167 200,167 L200,163 C234.793939,163 263,134.793939 263,100 C263,65.2060611 234.793939,37 200,37 L200,33 L200,33 Z M200,53 C225.957383,53 247,74.0426168 247,100 C247,125.957383 225.957383,147 200,147 L200,143 C223.748244,143 243,123.748244 243,100 C243,76.2517558 223.748244,57 200,57 L200,53 Z M200,73 C214.911688,73 227,85.088312 227,100 C227,114.911688 214.911688,127 200,127 L200,123 C212.702549,123 223,112.702549 223,100 C223,87.2974509 212.702549,77 200,77 L200,73 L200,73 Z" id="Shape" fill="#142936"></path>
            <circle id="Oval" fill="#142936" cx="325" cy="75" r="10"></circle>
            <rect id="Rectangle" fill="#10222E" x="300" y="0" width="25" height="50"></rect>
            <rect id="Rectangle" fill="#142936" x="0" y="100" width="2" height="100"></rect>
            <rect id="Rectangle" fill="#142936" x="10" y="100" width="2" height="100"></rect>
            <rect id="Rectangle" fill="#142936" x="20" y="100" width="2" height="100"></rect>
            <rect id="Rectangle" fill="#142936" x="30" y="100" width="2" height="100"></rect>
            <rect id="Rectangle" fill="#142936" x="40" y="100" width="2" height="100"></rect>
            <rect id="Rectangle" fill="#142936" x="50" y="100" width="2" height="100"></rect>
            <rect id="Rectangle" fill="#142936" x="60" y="100" width="2" height="100"></rect>
            <rect id="Rectangle" fill="#142936" x="70" y="100" width="2" height="100"></rect>
            <rect id="Rectangle" fill="#142936" x="80" y="100" width="2" height="100"></rect>
            <rect id="Rectangle" fill="#142936" x="90" y="100" width="2" height="100"></rect>
            <circle id="Oval" fill="#142936" cx="150" cy="150" r="30"></circle>
            <circle id="Oval" fill="#10222E" cx="150" cy="150" r="26"></circle>
            <path d="M131.62,168.38 C124.801578,161.865555 122.04504,152.169843 124.416476,143.042677 C126.787912,133.91551 133.91551,126.787912 143.042677,124.416476 C152.169843,122.04504 161.865555,124.801578 168.38,131.62 L131.62,168.38 L131.62,168.38 Z" id="Path" fill="#0C1E29"></path>
        </g>
    </g>
</svg>