<?xml version="1.0" encoding="UTF-8"?>
<svg width="741px" height="710" viewBox="0 0 494 472" version="1.1" xmlns="http://www.w3.org/2000/svg" xmlns:xlink="http://www.w3.org/1999/xlink">
    <title>Page 1</title>
    <g id="Page-1" stroke="none" stroke-width="1" fill="none" fill-rule="evenodd">
        <g id="bg-podcast" fill="#145a63" fill-rule="nonzero">
            <path d="M407.363,306.882 L432.832,282.5 L435.539,279.907 L474.59,242.51 C477.936,239.183 479.785,234.731 479.74,230.112 C479.694,225.492 477.758,221.075 474.346,217.809 C470.935,214.543 466.321,212.69 461.497,212.648 C456.674,212.606 452.026,214.378 448.553,217.584 L448.427,217.705 C446.718,219.342 444.689,220.64 442.456,221.526 C440.223,222.412 437.83,222.868 435.413,222.868 C432.996,222.868 430.602,222.412 428.37,221.526 C426.137,220.64 424.108,219.342 422.399,217.705 C420.69,216.069 419.334,214.126 418.409,211.987 C417.484,209.849 417.008,207.557 417.008,205.242 C417.008,202.928 417.484,200.636 418.409,198.497 C419.334,196.359 420.69,194.416 422.399,192.779 L487.622,130.327 C490.968,127 492.817,122.548 492.772803,117.928 C492.726,113.309 490.79,108.891 487.378,105.625 C483.967,102.36 479.353,100.506 474.529,100.464 C469.706,100.422 465.058,102.195 461.585,105.401 L421.117,144.155 C417.666,147.46 412.984,149.317 408.103,149.317 C403.222,149.317 398.541,147.46 395.089,144.155 C391.638,140.85 389.699,136.367 389.699,131.692 C389.699,127.018 391.638,122.535 395.089,119.229 L469.4,48.0559 C472.85,44.7498 474.788,40.267 474.788,35.593 C474.788,30.919 472.85,26.4363 469.4,23.1301 C469.274,23.0091 469.139,22.914 469.021,22.8017 C468.904,22.6893 468.796,22.551 468.669,22.43 C465.217,19.1262 460.536,17.2703 455.655,17.2703 C450.775,17.2703 446.094,19.1262 442.642,22.43 L368.331,93.5948 C364.879,96.9001 360.198,98.757 355.317,98.757 C350.436,98.757 345.754,96.9001 342.303,93.5948 C338.851,90.2894 336.912,85.8064 336.912,81.1319 C336.912,76.4574 338.851,71.9743 342.303,68.669 L382.77,29.9147 C386.011,26.5696 387.77,22.152 387.68,17.5902 C387.59,13.0284 385.657,8.6778 382.287,5.45269 C378.916,2.22757 374.372,0.37913 369.609,0.292920731 C364.845,0.2126 360.233,1.90099 356.743,5.00618 L291.538,67.4244 C289.829,69.0611 287.8,70.3593 285.567,71.2451 C283.334,72.1308 280.941,72.5867 278.524,72.5867 C276.107,72.5867 273.714,72.1308 271.481,71.2451 C269.248,70.3593 267.219,69.0611 265.51,67.4244 C263.801,65.7878 262.445,63.8448 261.521,61.7064 C260.596,59.568 260.12,57.2761 260.12,54.9615 C260.12,52.6469 260.596,50.355 261.521,48.2166 C262.445,46.0782 263.801,44.1353 265.51,42.4986 L265.636,42.3776 C268.984,39.0517 270.835,34.6004 270.791,29.9811 C270.747,25.3618 268.812,20.9434 265.402,17.6764 C261.992,14.4093 257.379,12.5545 252.555,12.5109 C247.732,12.4673 243.083,14.2383 239.609,17.4432 L200.558,54.8405 L197.851,57.4333 L172.373,81.8319 L111.491,140.136 L86.0322,164.526 L83.3247,167.119 L44.2559,204.525 C43.8228,204.948 43.4347,205.389 43.0556,205.83 L5.15111,242.13 C1.80463,245.457 -0.0447211,249.909 3.16450155e-09,254.528 C0.0463644,259.147 1.98316,263.565 5.39465,266.831 C8.80614,270.097 13.4198,271.95 18.2433,271.992 C23.0669,272.034 27.715,270.262 31.1879,267.056 L71.3126,228.621 C74.8867,225.573 79.562,223.982 84.3429,224.186 C89.1239,224.39 93.6329,226.373 96.91,229.713 C100.187,233.053 101.973,237.486 101.889,242.068 C101.804,246.651 99.8545,251.02 96.4559,254.247 L30.8811,316.691 C27.4272,320.042 25.5049,324.57 25.537,329.279 C25.5692,333.987 27.5532,338.491 31.0525,341.798 C34.5519,345.106 39.28,346.947 44.1967,346.916 C49.1134,346.885 53.8159,344.985 57.2698,341.634 L102.945,297.884 C104.654,296.247 106.684,294.948 108.918,294.062 C111.151,293.176 113.545,292.72 115.963,292.72 C118.381,292.72 120.775,293.176 123.009,294.062 C125.242,294.948 127.272,296.247 128.982,297.884 C130.691,299.522 132.047,301.465 132.973,303.604 C133.898,305.744 134.374,308.036 134.374,310.352 C134.374,312.667 133.898,314.96 132.973,317.099 C132.047,319.238 130.691,321.182 128.982,322.819 L118.323,333.026 C117.935,333.337 117.52,333.588 117.159,333.933 L114.452,336.526 C114.091,336.881 113.829,337.278 113.549,337.641 L54.6616,393.984 C51.2117,397.29 49.2737,401.772 49.2737,406.446 C49.2737,411.12 51.2117,415.603 54.6616,418.909 C54.788,419.03 54.9234,419.125 55.0497,419.238 C55.1761,419.35 55.2663,419.488 55.3927,419.609 C58.845,422.913 63.5259,424.769 68.4066,424.769 C73.2872,424.769 77.9681,422.913 81.4204,419.609 L140.236,363.284 C140.615,362.973 141.03,362.723 141.4,362.377 L144.107,359.784 C144.468,359.438 144.73,359.041 145.055,358.669 L155.713,348.462 C157.411,346.775 159.443,345.429 161.69,344.503 C163.937,343.577 166.355,343.089 168.801,343.068 C171.247,343.046 173.674,343.492 175.938,344.379 C178.202,345.266 180.26,346.576 181.989,348.233 C183.719,349.89 185.086,351.861 186.012,354.029 C186.937,356.198 187.402,358.522 187.379,360.865 C187.355,363.207 186.845,365.522 185.877,367.674 C184.909,369.826 183.503,371.771 181.741,373.396 L136.066,417.138 C134.333,418.775 132.955,420.724 132.008,422.872 C131.062,425.02 130.567,427.326 130.551,429.657 C130.535,431.989 130.998,434.3 131.915,436.46 C132.832,438.62 134.184,440.586 135.895,442.245 C137.605,443.904 139.64,445.225 141.883,446.131 C144.126,447.037 146.533,447.512 148.968,447.527 C151.402,447.542 153.816,447.098 156.071,446.22 C158.327,445.342 160.379,444.047 162.112,442.409 L227.299,379.628 C230.674,376.403 235.226,374.562 239.993,374.493 C244.76,374.424 249.369,376.133 252.844,379.259 C256.319,382.385 258.388,386.683 258.615,391.244 C258.841,395.804 257.207,400.27 254.058,403.698 L213.924,442.133 C210.576,445.458 208.725,449.91 208.769,454.529 C208.813,459.148 210.748,463.567 214.158,466.834 C217.569,470.101 222.182,471.956 227.005,471.999801 C231.829,472.043 236.478,470.272 239.952,467.067 L277.856,430.767 C278.316,430.404 278.759,430.033 279.21,429.618 L318.324,392.203 L321.031,389.61 L346.499,365.229 L407.363,306.882 Z" id="Path"></path>
            <path d="M446.689,314.521 L338.031,418.579 C330.767,425.535 330.767,436.814 338.031,443.77 C345.294,450.726 357.071,450.726 364.335,443.77 L472.994,339.712 C480.258,332.755 480.258,321.477 472.994,314.521 C465.73,307.564 453.953,307.564 446.689,314.521 Z" id="Path"></path>
            <path d="M56.5662,9.5955 L19.6042,44.9926 C12.3404,51.9489 12.3404,63.2273 19.6042,70.1836 C26.8681,77.14 38.6452,77.14 45.909,70.1837 L82.871,34.7866 C90.1349,27.8303 90.1349,16.5519 82.871,9.5955 C75.6072,2.63923 63.8301,2.63923 56.5662,9.5955 Z" id="Path"></path>
            <path d="M461.455,397.308 L424.493,432.705 C417.229,439.662 417.229,450.94 424.493,457.896 C431.757,464.853 443.534,464.853 450.798,457.896 L487.76,422.499 C495.024,415.543 495.024,404.265 487.76,397.308 C480.496,390.352 468.719,390.352 461.455,397.308 Z" id="Path"></path>
            <path d="M136.714,17.6977 L28.0367,121.738 C20.7716,128.693 20.7695,139.971 28.0321,146.929 C35.2947,153.886 47.0718,153.888 54.3369,146.933 L163.015,42.8931 C170.28,35.938 170.282,24.6596 163.019,17.7021 C155.757,10.7445 143.98,10.7426 136.714,17.6977 Z" id="Path"></path>
        </g>
    </g>
</svg>