<svg width="16" height="16" viewBox="0 0 16 16" fill="none" xmlns="http://www.w3.org/2000/svg">
<path d="M0 5C0 2.64298 0 1.46447 0.732233 0.732233C1.46447 0 2.64298 0 5 0H8C10.8003 0 12.2004 0 13.27 0.544967C14.2108 1.02433 14.9757 1.78924 15.455 2.73005C16 3.79961 16 5.19974 16 8V8C16 10.8003 16 12.2004 15.455 13.27C14.9757 14.2108 14.2108 14.9757 13.27 15.455C12.2004 16 10.8003 16 8 16V16C5.19974 16 3.79961 16 2.73005 15.455C1.78924 14.9757 1.02433 14.2108 0.544967 13.27C0 12.2004 0 10.8003 0 8V5Z" fill="url(#paint0_linear)"/>
<path d="M7.95406 12.644C9.87406 12.644 10.9901 11.6 10.9901 10.04C10.9901 8.708 10.2341 7.964 8.56606 7.64L7.82206 7.484C6.92206 7.304 6.49006 7.004 6.49006 6.308C6.49006 5.576 7.04206 5.18 8.00206 5.18C8.92606 5.18 9.52606 5.54 9.95806 6.104L10.9061 5.264C10.2581 4.436 9.33406 3.98 8.07406 3.98C6.29806 3.98 5.14606 4.892 5.14606 6.38C5.14606 7.712 5.97406 8.468 7.59406 8.768L8.33806 8.9C9.31006 9.092 9.64606 9.464 9.64606 10.112C9.64606 10.916 9.09406 11.444 8.02606 11.444C7.11406 11.444 6.41806 11.072 5.83006 10.352L4.89406 11.228C5.59006 12.092 6.55006 12.644 7.95406 12.644Z" fill="white"/>
<defs>
<linearGradient id="paint0_linear" x1="8" y1="0" x2="8" y2="16" gradientUnits="userSpaceOnUse">
<stop stop-color="#05AA82"/>
<stop offset="1" stop-color="#1C8DF0"/>
</linearGradient>
</defs>
</svg>
